<svg xmlns="http://www.w3.org/2000/svg" id="Layer_2" viewBox="0 0 329 329"><defs><style>.cls-1{fill:#004cba;}.cls-2,.cls-3{fill:#fff;}.cls-3{stroke:#004cba;stroke-miterlimit:10;stroke-width:2px;}</style></defs><g id="Layer_1-2"><circle class="cls-1" cx="162.45" cy="164.5" r="153.5"></circle><path class="cls-3" d="m164.5,328C74.35,328,1,254.65,1,164.5S74.35,1,164.5,1s163.5,73.35,163.5,163.5-73.35,163.5-163.5,163.5Zm0-307C85.37,21,21,85.37,21,164.5s64.37,143.5,143.5,143.5,143.5-64.37,143.5-143.5S243.63,21,164.5,21Z"></path><g><path class="cls-2" d="m103.2,182.12h-3.53v-23.92l-8.02,23.92h-3.34l-8.02-23.92v23.92h-3.53v-28.12h5.58l7.61,23.44,7.65-23.44h5.58v28.12Z"></path><path class="cls-2" d="m132.58,182.12h-4.2l-3.26-8.55h-11.78l-3.11,8.55h-3.93l10.8-28.12h4.01l11.47,28.12Zm-8.55-11.51l-4.95-13.04-4.72,13.04h9.67Z"></path><path class="cls-2" d="m135.69,154h8.92c9.55,0,14.33,4.64,14.33,13.9s-4.78,14.21-14.33,14.21h-8.92v-28.12Zm3.72,24.78h5.12c4.08,0,6.86-.95,8.34-2.85,1.48-1.9,2.22-4.57,2.22-8.03s-.74-5.96-2.22-7.81c-1.48-1.84-4.26-2.76-8.35-2.76h-5.12v21.44Z"></path><path class="cls-2" d="m185.02,182.12h-20.96v-28.12h20.31v3.34h-16.59v8.59h15.52v3.34h-15.52v9.51h17.24v3.34Z"></path><path class="cls-2" d="m221.7,173.95c0,2.63-.9,4.65-2.68,6.06-1.79,1.41-4.39,2.11-7.81,2.11h-10.53v-28.12h10.01c2.99,0,5.34.64,7.06,1.92,1.71,1.28,2.57,3.03,2.57,5.25,0,2.71-1.35,4.72-4.05,6.02,1.82.46,3.17,1.31,4.08,2.54.9,1.23,1.35,2.64,1.35,4.21Zm-17.3-8.17h6.25c2.06,0,3.57-.33,4.55-.99.97-.66,1.46-1.75,1.46-3.29,0-1.38-.47-2.42-1.42-3.12-.95-.7-2.59-1.05-4.93-1.05h-5.91v8.44Zm0,13h6.77c4.45,0,6.67-1.61,6.67-4.83,0-1.67-.51-2.9-1.54-3.67-1.03-.77-2.9-1.16-5.61-1.16h-6.29v9.67Z"></path><path class="cls-2" d="m249.74,154l-11.05,16.21v11.91h-3.72v-11.91l-11.05-16.21h4.53l8.4,12.95,8.36-12.95h4.53Z"></path><path class="cls-2" d="m89.92,238.68h-4.49v-15.88h-17.54v15.88h-4.46v-33.74h4.46v13.85h17.54v-13.85h4.49v33.74Z"></path><path class="cls-2" d="m110.7,239.25c-3.91,0-6.84-.76-8.78-2.28-1.94-1.52-3.17-3.31-3.68-5.36-.51-2.06-.77-4.44-.77-7.16v-19.52h4.46v19.45c0,4.43.74,7.35,2.23,8.75,1.49,1.4,3.67,2.09,6.54,2.09s5.05-.7,6.54-2.09c1.49-1.4,2.23-4.31,2.23-8.75v-19.45h4.49v19.52c0,4.08-.49,7.09-1.46,9.02-.98,1.93-2.44,3.38-4.41,4.34-1.96.96-4.43,1.44-7.39,1.44Z"></path><path class="cls-2" d="m163.22,238.68h-4.23v-28.7l-9.62,28.7h-4l-9.62-28.7v28.7h-4.23v-33.74h6.7l9.14,28.12,9.18-28.12h6.7v33.74Z"></path><path class="cls-2" d="m198.48,238.68h-5.04l-3.91-10.26h-14.13l-3.73,10.26h-4.72l12.96-33.74h4.81l13.76,33.74Zm-10.26-13.81l-5.94-15.65-5.66,15.65h11.6Z"></path><path class="cls-2" d="m228.69,238.68h-4.58l-17.67-26.63v26.63h-4.23v-33.74h4.56l17.67,26.63v-26.63h4.26v33.74Z"></path><path class="cls-2" d="m248.97,239.25c-4.76,0-8.31-1.07-10.67-3.2-2.36-2.13-3.59-4.87-3.72-8.22h4.3c.23,2.52,1.28,4.38,3.14,5.58,1.86,1.2,4.12,1.81,6.75,1.81,2.5,0,4.51-.51,6.04-1.54,1.53-1.03,2.29-2.42,2.29-4.19,0-1.86-.79-3.21-2.37-4.05-1.58-.84-4.3-1.68-8.16-2.5-3.86-.82-6.63-1.96-8.31-3.42-1.68-1.46-2.52-3.4-2.52-5.82,0-2.73,1.09-4.97,3.28-6.72s5.09-2.62,8.71-2.62c3.81,0,6.87.88,9.21,2.65,2.33,1.76,3.57,4.26,3.71,7.48h-4.35c-.44-4.08-3.24-6.12-8.38-6.12-2.49,0-4.41.47-5.78,1.4-1.37.94-2.05,2.18-2.05,3.73,0,1.41.55,2.47,1.65,3.18,1.1.71,3.15,1.39,6.14,2.05,3,.66,5.38,1.31,7.15,1.96s3.28,1.65,4.53,3,1.89,3.18,1.89,5.47c0,2.9-1.15,5.31-3.46,7.23-2.31,1.92-5.32,2.88-9.03,2.88Z"></path></g><path class="cls-2" d="m168.14,66.24l-2.16,43.5h-7.05l-2.16-43.5v-17.59h11.37v17.59Zm0,63.76h-11.37v-11.37h11.37v11.37Z"></path></g></svg>